%TF.GenerationSoftware,KiCad,Pcbnew,7.0.10*%
%TF.CreationDate,2024-01-29T17:08:50-08:00*%
%TF.ProjectId,FINAL_V1,46494e41-4c5f-4563-912e-6b696361645f,rev?*%
%TF.SameCoordinates,Original*%
%TF.FileFunction,Paste,Bot*%
%TF.FilePolarity,Positive*%
%FSLAX46Y46*%
G04 Gerber Fmt 4.6, Leading zero omitted, Abs format (unit mm)*
G04 Created by KiCad (PCBNEW 7.0.10) date 2024-01-29 17:08:50*
%MOMM*%
%LPD*%
G01*
G04 APERTURE LIST*
G04 Aperture macros list*
%AMRoundRect*
0 Rectangle with rounded corners*
0 $1 Rounding radius*
0 $2 $3 $4 $5 $6 $7 $8 $9 X,Y pos of 4 corners*
0 Add a 4 corners polygon primitive as box body*
4,1,4,$2,$3,$4,$5,$6,$7,$8,$9,$2,$3,0*
0 Add four circle primitives for the rounded corners*
1,1,$1+$1,$2,$3*
1,1,$1+$1,$4,$5*
1,1,$1+$1,$6,$7*
1,1,$1+$1,$8,$9*
0 Add four rect primitives between the rounded corners*
20,1,$1+$1,$2,$3,$4,$5,0*
20,1,$1+$1,$4,$5,$6,$7,0*
20,1,$1+$1,$6,$7,$8,$9,0*
20,1,$1+$1,$8,$9,$2,$3,0*%
G04 Aperture macros list end*
%ADD10R,1.075000X1.000000*%
%ADD11RoundRect,0.070000X-0.330000X-0.070000X0.330000X-0.070000X0.330000X0.070000X-0.330000X0.070000X0*%
%ADD12RoundRect,0.070000X0.070000X-0.330000X0.070000X0.330000X-0.070000X0.330000X-0.070000X-0.330000X0*%
%ADD13RoundRect,0.070000X0.330000X0.070000X-0.330000X0.070000X-0.330000X-0.070000X0.330000X-0.070000X0*%
%ADD14RoundRect,0.070000X-0.070000X0.330000X-0.070000X-0.330000X0.070000X-0.330000X0.070000X0.330000X0*%
G04 APERTURE END LIST*
%TO.C,U1*%
G36*
X96470000Y-88100000D02*
G01*
X95870000Y-88100000D01*
X95870000Y-87500000D01*
X96470000Y-87500000D01*
X96470000Y-88100000D01*
G37*
G36*
X96470000Y-87200000D02*
G01*
X95870000Y-87200000D01*
X95870000Y-86600000D01*
X96470000Y-86600000D01*
X96470000Y-87200000D01*
G37*
G36*
X96470000Y-86300000D02*
G01*
X95870000Y-86300000D01*
X95870000Y-85700000D01*
X96470000Y-85700000D01*
X96470000Y-86300000D01*
G37*
G36*
X95570000Y-88100000D02*
G01*
X94970000Y-88100000D01*
X94970000Y-87500000D01*
X95570000Y-87500000D01*
X95570000Y-88100000D01*
G37*
G36*
X95570000Y-87200000D02*
G01*
X94970000Y-87200000D01*
X94970000Y-86600000D01*
X95570000Y-86600000D01*
X95570000Y-87200000D01*
G37*
G36*
X95570000Y-86300000D02*
G01*
X94970000Y-86300000D01*
X94970000Y-85700000D01*
X95570000Y-85700000D01*
X95570000Y-86300000D01*
G37*
G36*
X94670000Y-88100000D02*
G01*
X94070000Y-88100000D01*
X94070000Y-87500000D01*
X94670000Y-87500000D01*
X94670000Y-88100000D01*
G37*
G36*
X94670000Y-87200000D02*
G01*
X94070000Y-87200000D01*
X94070000Y-86600000D01*
X94670000Y-86600000D01*
X94670000Y-87200000D01*
G37*
G36*
X94670000Y-86300000D02*
G01*
X94070000Y-86300000D01*
X94070000Y-85700000D01*
X94670000Y-85700000D01*
X94670000Y-86300000D01*
G37*
%TD*%
D10*
%TO.C,R1*%
X89740000Y-91440000D03*
X91440000Y-91440000D03*
%TD*%
%TO.C,C2*%
X92290000Y-76200000D03*
X90590000Y-76200000D03*
%TD*%
D11*
%TO.C,U1*%
X97270000Y-85650000D03*
X97270000Y-86150000D03*
X97270000Y-86650000D03*
X97270000Y-87150000D03*
X97270000Y-87650000D03*
X97270000Y-88150000D03*
D12*
X96520000Y-88900000D03*
X96020000Y-88900000D03*
X95520000Y-88900000D03*
X95020000Y-88900000D03*
X94520000Y-88900000D03*
X94020000Y-88900000D03*
D13*
X93270000Y-88150000D03*
X93270000Y-87650000D03*
X93270000Y-87150000D03*
X93270000Y-86650000D03*
X93270000Y-86150000D03*
X93270000Y-85650000D03*
D14*
X94020000Y-84900000D03*
X94520000Y-84900000D03*
X95020000Y-84900000D03*
X95520000Y-84900000D03*
X96020000Y-84900000D03*
X96520000Y-84900000D03*
%TD*%
D10*
%TO.C,C1*%
X88900000Y-81280000D03*
X90600000Y-81280000D03*
%TD*%
%TO.C,R3*%
X99060000Y-81280000D03*
X100760000Y-81280000D03*
%TD*%
%TO.C,R2*%
X99900000Y-91440000D03*
X101600000Y-91440000D03*
%TD*%
M02*
