%TF.GenerationSoftware,KiCad,Pcbnew,7.0.10*%
%TF.CreationDate,2024-01-29T17:08:50-08:00*%
%TF.ProjectId,FINAL_V1,46494e41-4c5f-4563-912e-6b696361645f,rev?*%
%TF.SameCoordinates,Original*%
%TF.FileFunction,Copper,L1,Top*%
%TF.FilePolarity,Positive*%
%FSLAX46Y46*%
G04 Gerber Fmt 4.6, Leading zero omitted, Abs format (unit mm)*
G04 Created by KiCad (PCBNEW 7.0.10) date 2024-01-29 17:08:50*
%MOMM*%
%LPD*%
G01*
G04 APERTURE LIST*
%ADD10C,0.127350*%
%TA.AperFunction,NonConductor*%
%ADD11C,0.127350*%
%TD*%
%TA.AperFunction,ComponentPad*%
%ADD12O,3.556000X1.778000*%
%TD*%
%TA.AperFunction,ComponentPad*%
%ADD13R,1.700000X1.700000*%
%TD*%
%TA.AperFunction,ViaPad*%
%ADD14C,0.800000*%
%TD*%
%TA.AperFunction,Conductor*%
%ADD15C,0.279400*%
%TD*%
G04 APERTURE END LIST*
D10*
D11*
X89347439Y-93553537D02*
X89135305Y-93553537D01*
X89135305Y-93886889D02*
X89135305Y-93250489D01*
X89135305Y-93250489D02*
X89438353Y-93250489D01*
X89680791Y-93886889D02*
X89680791Y-93462623D01*
X89680791Y-93583842D02*
X89711096Y-93523232D01*
X89711096Y-93523232D02*
X89741401Y-93492927D01*
X89741401Y-93492927D02*
X89802010Y-93462623D01*
X89802010Y-93462623D02*
X89862620Y-93462623D01*
X90317191Y-93856585D02*
X90256582Y-93886889D01*
X90256582Y-93886889D02*
X90135363Y-93886889D01*
X90135363Y-93886889D02*
X90074753Y-93856585D01*
X90074753Y-93856585D02*
X90044449Y-93795975D01*
X90044449Y-93795975D02*
X90044449Y-93553537D01*
X90044449Y-93553537D02*
X90074753Y-93492927D01*
X90074753Y-93492927D02*
X90135363Y-93462623D01*
X90135363Y-93462623D02*
X90256582Y-93462623D01*
X90256582Y-93462623D02*
X90317191Y-93492927D01*
X90317191Y-93492927D02*
X90347496Y-93553537D01*
X90347496Y-93553537D02*
X90347496Y-93614146D01*
X90347496Y-93614146D02*
X90044449Y-93674756D01*
X90559630Y-93462623D02*
X90711154Y-93886889D01*
X90862677Y-93462623D02*
X90711154Y-93886889D01*
X90711154Y-93886889D02*
X90650544Y-94038413D01*
X90650544Y-94038413D02*
X90620239Y-94068718D01*
X90620239Y-94068718D02*
X90559630Y-94099023D01*
X91377858Y-93886889D02*
X91377858Y-93553537D01*
X91377858Y-93553537D02*
X91347553Y-93492927D01*
X91347553Y-93492927D02*
X91286944Y-93462623D01*
X91286944Y-93462623D02*
X91165725Y-93462623D01*
X91165725Y-93462623D02*
X91105115Y-93492927D01*
X91377858Y-93856585D02*
X91317249Y-93886889D01*
X91317249Y-93886889D02*
X91165725Y-93886889D01*
X91165725Y-93886889D02*
X91105115Y-93856585D01*
X91105115Y-93856585D02*
X91074811Y-93795975D01*
X91074811Y-93795975D02*
X91074811Y-93735365D01*
X91074811Y-93735365D02*
X91105115Y-93674756D01*
X91105115Y-93674756D02*
X91165725Y-93644451D01*
X91165725Y-93644451D02*
X91317249Y-93644451D01*
X91317249Y-93644451D02*
X91377858Y-93614146D01*
X92287000Y-93583842D02*
X92287000Y-93886889D01*
X92074867Y-93250489D02*
X92287000Y-93583842D01*
X92287000Y-93583842D02*
X92499134Y-93250489D01*
X92984010Y-93462623D02*
X92984010Y-93886889D01*
X92711267Y-93462623D02*
X92711267Y-93795975D01*
X92711267Y-93795975D02*
X92741572Y-93856585D01*
X92741572Y-93856585D02*
X92802182Y-93886889D01*
X92802182Y-93886889D02*
X92893096Y-93886889D01*
X92893096Y-93886889D02*
X92953705Y-93856585D01*
X92953705Y-93856585D02*
X92984010Y-93826280D01*
X93741629Y-93311099D02*
X93771933Y-93280794D01*
X93771933Y-93280794D02*
X93832543Y-93250489D01*
X93832543Y-93250489D02*
X93984067Y-93250489D01*
X93984067Y-93250489D02*
X94044676Y-93280794D01*
X94044676Y-93280794D02*
X94074981Y-93311099D01*
X94074981Y-93311099D02*
X94105286Y-93371708D01*
X94105286Y-93371708D02*
X94105286Y-93432318D01*
X94105286Y-93432318D02*
X94074981Y-93523232D01*
X94074981Y-93523232D02*
X93711324Y-93886889D01*
X93711324Y-93886889D02*
X94105286Y-93886889D01*
X94317419Y-93250489D02*
X94711381Y-93250489D01*
X94711381Y-93250489D02*
X94499247Y-93492927D01*
X94499247Y-93492927D02*
X94590162Y-93492927D01*
X94590162Y-93492927D02*
X94650771Y-93523232D01*
X94650771Y-93523232D02*
X94681076Y-93553537D01*
X94681076Y-93553537D02*
X94711381Y-93614146D01*
X94711381Y-93614146D02*
X94711381Y-93765670D01*
X94711381Y-93765670D02*
X94681076Y-93826280D01*
X94681076Y-93826280D02*
X94650771Y-93856585D01*
X94650771Y-93856585D02*
X94590162Y-93886889D01*
X94590162Y-93886889D02*
X94408333Y-93886889D01*
X94408333Y-93886889D02*
X94347724Y-93856585D01*
X94347724Y-93856585D02*
X94317419Y-93826280D01*
X94923514Y-93250489D02*
X95347780Y-93250489D01*
X95347780Y-93250489D02*
X95075038Y-93886889D01*
X95559914Y-93311099D02*
X95590218Y-93280794D01*
X95590218Y-93280794D02*
X95650828Y-93250489D01*
X95650828Y-93250489D02*
X95802352Y-93250489D01*
X95802352Y-93250489D02*
X95862961Y-93280794D01*
X95862961Y-93280794D02*
X95893266Y-93311099D01*
X95893266Y-93311099D02*
X95923571Y-93371708D01*
X95923571Y-93371708D02*
X95923571Y-93432318D01*
X95923571Y-93432318D02*
X95893266Y-93523232D01*
X95893266Y-93523232D02*
X95529609Y-93886889D01*
X95529609Y-93886889D02*
X95923571Y-93886889D01*
X96135704Y-93250489D02*
X96559970Y-93250489D01*
X96559970Y-93250489D02*
X96287228Y-93886889D01*
X96741799Y-93250489D02*
X97135761Y-93250489D01*
X97135761Y-93250489D02*
X96923627Y-93492927D01*
X96923627Y-93492927D02*
X97014542Y-93492927D01*
X97014542Y-93492927D02*
X97075151Y-93523232D01*
X97075151Y-93523232D02*
X97105456Y-93553537D01*
X97105456Y-93553537D02*
X97135761Y-93614146D01*
X97135761Y-93614146D02*
X97135761Y-93765670D01*
X97135761Y-93765670D02*
X97105456Y-93826280D01*
X97105456Y-93826280D02*
X97075151Y-93856585D01*
X97075151Y-93856585D02*
X97014542Y-93886889D01*
X97014542Y-93886889D02*
X96832713Y-93886889D01*
X96832713Y-93886889D02*
X96772104Y-93856585D01*
X96772104Y-93856585D02*
X96741799Y-93826280D01*
X97378199Y-93311099D02*
X97408503Y-93280794D01*
X97408503Y-93280794D02*
X97469113Y-93250489D01*
X97469113Y-93250489D02*
X97620637Y-93250489D01*
X97620637Y-93250489D02*
X97681246Y-93280794D01*
X97681246Y-93280794D02*
X97711551Y-93311099D01*
X97711551Y-93311099D02*
X97741856Y-93371708D01*
X97741856Y-93371708D02*
X97741856Y-93432318D01*
X97741856Y-93432318D02*
X97711551Y-93523232D01*
X97711551Y-93523232D02*
X97347894Y-93886889D01*
X97347894Y-93886889D02*
X97741856Y-93886889D01*
X89074696Y-94487227D02*
X89226220Y-94911493D01*
X89377743Y-94487227D02*
X89226220Y-94911493D01*
X89226220Y-94911493D02*
X89165610Y-95063017D01*
X89165610Y-95063017D02*
X89135305Y-95093322D01*
X89135305Y-95093322D02*
X89074696Y-95123627D01*
X89862619Y-94881189D02*
X89802010Y-94911493D01*
X89802010Y-94911493D02*
X89680791Y-94911493D01*
X89680791Y-94911493D02*
X89620181Y-94881189D01*
X89620181Y-94881189D02*
X89589877Y-94820579D01*
X89589877Y-94820579D02*
X89589877Y-94578141D01*
X89589877Y-94578141D02*
X89620181Y-94517531D01*
X89620181Y-94517531D02*
X89680791Y-94487227D01*
X89680791Y-94487227D02*
X89802010Y-94487227D01*
X89802010Y-94487227D02*
X89862619Y-94517531D01*
X89862619Y-94517531D02*
X89892924Y-94578141D01*
X89892924Y-94578141D02*
X89892924Y-94638750D01*
X89892924Y-94638750D02*
X89589877Y-94699360D01*
X90105058Y-94487227D02*
X90256582Y-94911493D01*
X90408105Y-94487227D02*
X90256582Y-94911493D01*
X90256582Y-94911493D02*
X90195972Y-95063017D01*
X90195972Y-95063017D02*
X90165667Y-95093322D01*
X90165667Y-95093322D02*
X90105058Y-95123627D01*
X90559629Y-94487227D02*
X90802067Y-94487227D01*
X90650543Y-94911493D02*
X90650543Y-94366008D01*
X90650543Y-94366008D02*
X90680848Y-94305398D01*
X90680848Y-94305398D02*
X90741458Y-94275093D01*
X90741458Y-94275093D02*
X90802067Y-94275093D01*
X91014200Y-94911493D02*
X91014200Y-94487227D01*
X91014200Y-94608446D02*
X91044505Y-94547836D01*
X91044505Y-94547836D02*
X91074810Y-94517531D01*
X91074810Y-94517531D02*
X91135419Y-94487227D01*
X91135419Y-94487227D02*
X91196029Y-94487227D01*
X91650600Y-94881189D02*
X91589991Y-94911493D01*
X91589991Y-94911493D02*
X91468772Y-94911493D01*
X91468772Y-94911493D02*
X91408162Y-94881189D01*
X91408162Y-94881189D02*
X91377858Y-94820579D01*
X91377858Y-94820579D02*
X91377858Y-94578141D01*
X91377858Y-94578141D02*
X91408162Y-94517531D01*
X91408162Y-94517531D02*
X91468772Y-94487227D01*
X91468772Y-94487227D02*
X91589991Y-94487227D01*
X91589991Y-94487227D02*
X91650600Y-94517531D01*
X91650600Y-94517531D02*
X91680905Y-94578141D01*
X91680905Y-94578141D02*
X91680905Y-94638750D01*
X91680905Y-94638750D02*
X91377858Y-94699360D01*
X91893039Y-94487227D02*
X92044563Y-94911493D01*
X92196086Y-94487227D02*
X92044563Y-94911493D01*
X92044563Y-94911493D02*
X91983953Y-95063017D01*
X91983953Y-95063017D02*
X91953648Y-95093322D01*
X91953648Y-95093322D02*
X91893039Y-95123627D01*
X92711267Y-94911493D02*
X92711267Y-94578141D01*
X92711267Y-94578141D02*
X92680962Y-94517531D01*
X92680962Y-94517531D02*
X92620353Y-94487227D01*
X92620353Y-94487227D02*
X92499134Y-94487227D01*
X92499134Y-94487227D02*
X92438524Y-94517531D01*
X92711267Y-94881189D02*
X92650658Y-94911493D01*
X92650658Y-94911493D02*
X92499134Y-94911493D01*
X92499134Y-94911493D02*
X92438524Y-94881189D01*
X92438524Y-94881189D02*
X92408220Y-94820579D01*
X92408220Y-94820579D02*
X92408220Y-94759969D01*
X92408220Y-94759969D02*
X92438524Y-94699360D01*
X92438524Y-94699360D02*
X92499134Y-94669055D01*
X92499134Y-94669055D02*
X92650658Y-94669055D01*
X92650658Y-94669055D02*
X92711267Y-94638750D01*
X93408276Y-94608446D02*
X93377971Y-94578141D01*
X93377971Y-94578141D02*
X93317362Y-94547836D01*
X93317362Y-94547836D02*
X93256752Y-94547836D01*
X93256752Y-94547836D02*
X93196143Y-94578141D01*
X93196143Y-94578141D02*
X93165838Y-94608446D01*
X93165838Y-94608446D02*
X93135533Y-94669055D01*
X93135533Y-94669055D02*
X93135533Y-94729665D01*
X93135533Y-94729665D02*
X93165838Y-94790274D01*
X93165838Y-94790274D02*
X93196143Y-94820579D01*
X93196143Y-94820579D02*
X93256752Y-94850884D01*
X93256752Y-94850884D02*
X93317362Y-94850884D01*
X93317362Y-94850884D02*
X93377971Y-94820579D01*
X93377971Y-94820579D02*
X93408276Y-94790274D01*
X93408276Y-94547836D02*
X93408276Y-94790274D01*
X93408276Y-94790274D02*
X93438581Y-94820579D01*
X93438581Y-94820579D02*
X93468886Y-94820579D01*
X93468886Y-94820579D02*
X93529495Y-94790274D01*
X93529495Y-94790274D02*
X93559800Y-94729665D01*
X93559800Y-94729665D02*
X93559800Y-94578141D01*
X93559800Y-94578141D02*
X93499191Y-94487227D01*
X93499191Y-94487227D02*
X93408276Y-94426617D01*
X93408276Y-94426617D02*
X93287057Y-94396312D01*
X93287057Y-94396312D02*
X93165838Y-94426617D01*
X93165838Y-94426617D02*
X93074924Y-94487227D01*
X93074924Y-94487227D02*
X93014314Y-94578141D01*
X93014314Y-94578141D02*
X92984010Y-94699360D01*
X92984010Y-94699360D02*
X93014314Y-94820579D01*
X93014314Y-94820579D02*
X93074924Y-94911493D01*
X93074924Y-94911493D02*
X93165838Y-94972103D01*
X93165838Y-94972103D02*
X93287057Y-95002408D01*
X93287057Y-95002408D02*
X93408276Y-94972103D01*
X93408276Y-94972103D02*
X93499191Y-94911493D01*
X94105286Y-94487227D02*
X94105286Y-94911493D01*
X93832543Y-94487227D02*
X93832543Y-94820579D01*
X93832543Y-94820579D02*
X93862848Y-94881189D01*
X93862848Y-94881189D02*
X93923458Y-94911493D01*
X93923458Y-94911493D02*
X94014372Y-94911493D01*
X94014372Y-94911493D02*
X94074981Y-94881189D01*
X94074981Y-94881189D02*
X94105286Y-94850884D01*
X94347724Y-94487227D02*
X94468943Y-94911493D01*
X94468943Y-94911493D02*
X94590162Y-94608446D01*
X94590162Y-94608446D02*
X94711381Y-94911493D01*
X94711381Y-94911493D02*
X94832600Y-94487227D01*
X95075038Y-94850884D02*
X95105343Y-94881189D01*
X95105343Y-94881189D02*
X95075038Y-94911493D01*
X95075038Y-94911493D02*
X95044734Y-94881189D01*
X95044734Y-94881189D02*
X95075038Y-94850884D01*
X95075038Y-94850884D02*
X95075038Y-94911493D01*
X95620524Y-94881189D02*
X95559915Y-94911493D01*
X95559915Y-94911493D02*
X95438696Y-94911493D01*
X95438696Y-94911493D02*
X95378086Y-94881189D01*
X95378086Y-94881189D02*
X95347782Y-94820579D01*
X95347782Y-94820579D02*
X95347782Y-94578141D01*
X95347782Y-94578141D02*
X95378086Y-94517531D01*
X95378086Y-94517531D02*
X95438696Y-94487227D01*
X95438696Y-94487227D02*
X95559915Y-94487227D01*
X95559915Y-94487227D02*
X95620524Y-94517531D01*
X95620524Y-94517531D02*
X95650829Y-94578141D01*
X95650829Y-94578141D02*
X95650829Y-94638750D01*
X95650829Y-94638750D02*
X95347782Y-94699360D01*
X96196315Y-94911493D02*
X96196315Y-94275093D01*
X96196315Y-94881189D02*
X96135706Y-94911493D01*
X96135706Y-94911493D02*
X96014487Y-94911493D01*
X96014487Y-94911493D02*
X95953877Y-94881189D01*
X95953877Y-94881189D02*
X95923572Y-94850884D01*
X95923572Y-94850884D02*
X95893268Y-94790274D01*
X95893268Y-94790274D02*
X95893268Y-94608446D01*
X95893268Y-94608446D02*
X95923572Y-94547836D01*
X95923572Y-94547836D02*
X95953877Y-94517531D01*
X95953877Y-94517531D02*
X96014487Y-94487227D01*
X96014487Y-94487227D02*
X96135706Y-94487227D01*
X96135706Y-94487227D02*
X96196315Y-94517531D01*
X96772105Y-94487227D02*
X96772105Y-94911493D01*
X96499362Y-94487227D02*
X96499362Y-94820579D01*
X96499362Y-94820579D02*
X96529667Y-94881189D01*
X96529667Y-94881189D02*
X96590277Y-94911493D01*
X96590277Y-94911493D02*
X96681191Y-94911493D01*
X96681191Y-94911493D02*
X96741800Y-94881189D01*
X96741800Y-94881189D02*
X96772105Y-94850884D01*
D12*
%TO.P,U2,1,GPIO1_A0_D0*%
%TO.N,Net-(U2-GPIO1_A0_D0)*%
X105918000Y-76200000D03*
%TO.P,U2,2,GPIO2_A1_D1*%
%TO.N,unconnected-(U2-GPIO2_A1_D1-Pad2)*%
X105918000Y-78740000D03*
%TO.P,U2,3,GPIO3_A2_D2*%
%TO.N,Net-(U2-GPIO3_A2_D2)*%
X105918000Y-81280000D03*
%TO.P,U2,4,GPIO4_A3_D3*%
%TO.N,unconnected-(U2-GPIO4_A3_D3-Pad4)*%
X105918000Y-83820000D03*
%TO.P,U2,5,GPIO4_A3_D3_SDA*%
%TO.N,Net-(U2-GPIO4_A3_D3_SDA)*%
X105918000Y-86360000D03*
%TO.P,U2,6,GPIO6_A5_D5_SCL*%
%TO.N,Net-(U2-GPIO6_A5_D5_SCL)*%
X105918000Y-88900000D03*
%TO.P,U2,7,GPIO43_TX_D6*%
%TO.N,unconnected-(U2-GPIO43_TX_D6-Pad7)*%
X105918000Y-91440000D03*
%TO.P,U2,8,5V*%
%TO.N,unconnected-(U2-5V-Pad8)*%
X122682000Y-76200000D03*
%TO.P,U2,9,GND*%
%TO.N,GND*%
X122682000Y-78740000D03*
%TO.P,U2,10,3V3*%
%TO.N,3.3V*%
X122682000Y-81280000D03*
%TO.P,U2,11,GPIO9_A10_D10_COPI*%
%TO.N,unconnected-(U2-GPIO9_A10_D10_COPI-Pad11)*%
X122682000Y-83820000D03*
%TO.P,U2,12,GPIO8_A9_D9_CIPO*%
%TO.N,unconnected-(U2-GPIO8_A9_D9_CIPO-Pad12)*%
X122682000Y-86360000D03*
%TO.P,U2,13,GPIO7_A8_D8_SCK*%
%TO.N,unconnected-(U2-GPIO7_A8_D8_SCK-Pad13)*%
X122682000Y-88900000D03*
%TO.P,U2,14,GPIO44_D7_RX*%
%TO.N,unconnected-(U2-GPIO44_D7_RX-Pad14)*%
X122682000Y-91440000D03*
%TD*%
D13*
%TO.P,TP1,1,1*%
%TO.N,Net-(U2-GPIO1_A0_D0)*%
X99060000Y-76200000D03*
%TD*%
D14*
%TO.N,3.3V*%
X93270000Y-88920400D03*
X95957300Y-89912800D03*
%TD*%
D15*
%TO.N,3.3V*%
X121920000Y-81280000D02*
X120562400Y-81280000D01*
X95957300Y-88920400D02*
X95957300Y-89912800D01*
X97247700Y-87630000D02*
X95957300Y-88920400D01*
X95957300Y-88920400D02*
X93270000Y-88920400D01*
X114212400Y-87630000D02*
X97247700Y-87630000D01*
X120562400Y-81280000D02*
X114212400Y-87630000D01*
%TD*%
M02*
